<?xml version="1.0" standalone="no"?>
<!DOCTYPE svg PUBLIC "-//W3C//DTD SVG 20010904//EN"
 "http://www.w3.org/TR/2001/REC-SVG-20010904/DTD/svg10.dtd">
<svg version="1.0" xmlns="http://www.w3.org/2000/svg"
 width="621.000000pt" height="128.000000pt" viewBox="0 0 621.000000 128.000000"
 preserveAspectRatio="xMidYMid meet">

<g transform="translate(0.000000,128.000000) scale(0.100000,-0.100000)"
fill="#000000" stroke="none">
<path d="M467 1085 c-81 -22 -154 -66 -217 -128 -152 -152 -189 -371 -96 -562
63 -127 152 -205 290 -253 96 -33 238 -29 335 11 77 32 158 93 203 152 18 25
36 45 40 45 4 0 17 -18 29 -40 27 -47 44 -55 75 -35 21 13 304 15 2549 15
l2525 0 0 35 0 35 -2509 0 -2509 0 -47 76 c-26 41 -46 77 -44 79 2 1 21 10 42
18 20 9 37 21 37 27 0 5 -17 23 -39 38 -35 24 -40 33 -51 94 -14 80 -64 187
-114 244 -48 56 -134 112 -215 140 -76 27 -204 31 -284 9z m239 -49 c153 -41
292 -185 319 -330 6 -32 5 -37 -6 -30 -8 4 -47 30 -88 56 -105 69 -106 68 -75
-157 13 -99 24 -181 24 -182 0 -13 39 2 60 22 23 22 29 24 39 11 10 -12 6 -25
-23 -68 -61 -92 -185 -170 -296 -184 l-55 -7 68 74 c75 82 127 174 127 226 0
47 -64 114 -136 144 -30 13 -54 26 -54 29 0 4 9 15 21 26 54 49 65 124 23 173
l-25 30 48 24 c26 14 57 35 68 47 18 20 18 24 4 48 -12 23 -25 28 -81 37 -37
5 -70 13 -74 18 -12 12 57 8 112 -7z m-175 -12 c21 -25 70 -46 124 -53 l50 -6
-54 -30 c-30 -17 -60 -39 -68 -51 -12 -19 -10 -25 17 -59 16 -21 30 -47 30
-59 0 -12 -18 -43 -40 -70 -22 -26 -40 -57 -40 -67 0 -21 28 -42 83 -59 43
-13 117 -79 117 -102 0 -47 -80 -166 -167 -249 -46 -44 -50 -46 -88 -37 l-40
8 3 48 c3 42 -1 53 -37 101 -69 92 -67 112 14 195 57 59 71 89 61 131 -8 30
-45 50 -111 60 -27 4 -58 11 -67 16 -26 14 -41 74 -33 135 7 59 30 86 109 126
77 40 117 46 137 22z m-253 -315 c23 -21 46 -30 90 -35 33 -3 65 -10 72 -14
19 -12 4 -41 -54 -102 -82 -86 -86 -146 -16 -240 25 -32 40 -63 40 -80 l0 -29
-31 17 c-74 38 -168 149 -198 234 -36 102 -30 230 16 333 l27 60 11 -58 c9
-44 20 -65 43 -86z m715 -78 l88 -59 -30 -10 c-17 -6 -31 -18 -31 -27 0 -8 23
-51 50 -95 28 -44 50 -86 50 -93 0 -36 -18 -19 -72 68 -63 101 -84 114 -112
73 -9 -12 -16 -18 -16 -13 0 6 -4 37 -9 70 -20 129 -21 145 -14 145 5 0 48
-26 96 -59z"/>
<path d="M1340 744 l0 -227 119 6 c129 5 168 18 198 64 11 17 18 45 17 72 -1
37 -7 49 -33 73 l-31 28 21 29 c31 43 29 105 -4 138 -30 30 -84 42 -204 42
l-83 1 0 -226z m200 126 c11 -11 20 -24 20 -30 0 -24 -41 -50 -80 -50 l-40 0
0 50 0 50 40 0 c27 0 47 -7 60 -20z m22 -177 c42 -38 6 -83 -72 -91 l-50 -5 0
57 0 56 52 0 c34 0 58 -6 70 -17z"/>
<path d="M2507 753 c-37 -120 -67 -222 -67 -226 0 -4 21 -7 48 -5 l47 3 16 50
16 50 66 3 66 3 11 -43 c6 -24 13 -49 15 -55 5 -14 105 -19 105 -5 0 11 -129
422 -136 433 -3 5 -31 9 -62 9 l-58 0 -67 -217z m130 -41 c-21 -2 -41 -1 -43
1 -5 4 21 123 33 157 3 8 15 -23 27 -70 l22 -85 -39 -3z"/>
<path d="M2997 850 c-31 -17 -37 -17 -37 -5 0 11 -12 15 -45 15 l-45 0 0 -230
0 -230 50 0 50 0 0 76 0 75 22 -15 c33 -23 100 -20 133 6 90 71 84 274 -9 313
-47 20 -74 19 -119 -5z m84 -108 c23 -58 -9 -142 -53 -142 -47 0 -58 17 -58
91 0 69 0 70 32 84 39 16 64 6 79 -33z"/>
<path d="M3387 850 c-31 -17 -37 -17 -37 -5 0 11 -12 15 -45 15 l-45 0 0 -230
0 -230 50 0 50 0 0 76 0 75 22 -15 c33 -23 100 -20 133 6 90 71 84 274 -9 313
-47 20 -74 19 -119 -5z m84 -108 c23 -58 -9 -142 -53 -142 -47 0 -58 17 -58
91 0 69 0 70 32 84 39 16 64 6 79 -33z"/>
<path d="M1740 735 c0 -176 21 -219 105 -217 29 0 55 8 75 22 l31 22 6 -21 c4
-17 13 -21 44 -21 l39 0 0 170 0 170 -50 0 -50 0 0 -114 c0 -107 -1 -116 -22
-130 -28 -20 -43 -20 -62 0 -13 12 -16 39 -16 130 l0 114 -50 0 -50 0 0 -125z"/>
<path d="M2100 853 c0 -5 27 -77 60 -161 33 -84 60 -159 60 -167 0 -23 -37
-55 -64 -55 -19 0 -25 -6 -29 -32 -6 -43 -2 -48 39 -48 51 0 90 24 118 73 18
31 146 376 146 394 0 2 -22 3 -48 3 l-48 0 -29 -110 c-17 -60 -32 -110 -35
-110 -3 0 -20 50 -39 110 l-34 110 -49 0 c-26 0 -48 -3 -48 -7z"/>
</g>
</svg>
